{
  "title": "The Tick 2016 S01E00 Pilot 1080p AMZN WEBRip HEVC DD5.1 x265",
  "uid": 15600225,
  "size": 512663335,
  "categoryP": "video",
  "categoryS": "hd___tv_shows",
  "magnet": "?xt=urn:btih:2959648e33855611681ebb18a00591f7ed125f31&amp;dn=The+Tick+2016+S01E00+Pilot+1080p+AMZN+WEBRip+HEVC+DD5.1+x265&amp;tr=udp%3A%2F%2Ftracker.leechers-paradise.org%3A6969&amp;tr=udp%3A%2F%2Fzer0day.ch%3A1337&amp;tr=udp%3A%2F%2Fopen.demonii.com%3A1337&amp;tr=udp%3A%2F%2Ftracker.coppersurfer.tk%3A6969&amp;tr=udp%3A%2F%2Fexodus.desync.com%3A6969",
  "seeders": 53,
  "leechers": 5,
  "uploader": "nayhtut",
  "files": 1,
  "time": 1471627852,
  "description": "[Screenshots]\r\n \nhttps://s3.postimg.org/jzk2ik7ib/The_Tick_2016_S01_E00_Pilot_1080p_AMZN_WEBRip_HEV.jpg \nhttps://s3.postimg.org/8bq0o0idf/The_Tick_2016_S01_E00_Pilot_1080p_AMZN_WEBRip_HEV.jpg \nhttps://s3.postimg.org/s7m03jzer/The_Tick_2016_S01_E00_Pilot_1080p_AMZN_WEBRip_HEV.jpg\r\n\r\n\r\nSource:  The Tick 2016 S01E00 Pilot 1080p AMZN WEBRip DD5.1 x264-RTN (1.31 GB)\r\n\r\n\r\n__--__--__--__--__--__--__--__--__--__--__--__--__--\r\n\r\n\r\nComplete name                            : The.Tick.2016.S01E00.Pilot.1080p.AMZN.WEBRip.HEVC.DD5.1.x265.mkv\r\nFormat                                   : Matroska\r\nFormat version                           : Version 4 / Version 2\r\nFile size                                : 489 MiB\r\nDuration                                 : 30mn 3s\r\nOverall bit rate                         : 2 275 Kbps\r\nWriting application                      : Lavf57.25.100\r\nWriting library                          : Lavf57.25.100\r\n\r\nVideo\r\n\r\nID                                       : 1\r\nFormat                                   : V_MPEGH/ISO/HEVC\r\nCodec ID                                 : V_MPEGH/ISO/HEVC\r\nDuration                                 : 30mn 3s\r\nBit rate                                 : 1 845 Kbps\r\nWidth                                    : 1 920 pixels\r\nHeight                                   : 1 080 pixels\r\nDisplay aspect ratio                     : 16:9\r\nFrame rate                               : 25.000 fps\r\nBits/(Pixel*Frame)                       : 0.036\r\nStream size                              : 397 MiB (81%)\r\nWriting library                          : Lavc57.48.101 libx265\r\nLanguage                                 : English\r\nDefault                                  : Yes\r\nForced                                   : No\r\nDURATION                                 : 00:30:03.011000000\r\n\r\nAudio\r\n\r\nID                                       : 2\r\nFormat                                   : AC-3\r\nFormat/Info                              : Audio Coding 3\r\nMode extension                           : CM (complete main)\r\nFormat settings, Endianness              : Big\r\nCodec ID                                 : A_AC3\r\nDuration                                 : 30mn 3s\r\nBit rate mode                            : Constant\r\nBit rate                                 : 384 Kbps\r\nChannel(s)                               : 6 channels\r\nChannel positions                        : Front: L C R, Side: L R, LFE\r\nSampling rate                            : 48.0 KHz\r\nBit depth                                : 16 bits\r\nCompression mode                         : Lossy\r\nStream size                              : 82.5 MiB (17%)\r\nWriting library                          : Lavc57.24.102 ac3\r\nLanguage                                 : English\r\nDefault                                  : Yes\r\nForced                                   : No\r\nDURATION                                 : 00:30:02.975000000\r\n\r\nText\r\n\r\nID                                       : 3\r\nFormat                                   : ASS\r\nCodec ID                                 : S_TEXT/ASS\r\nCodec ID/Info                            : Advanced Sub Station Alpha\r\nCompression mode                         : Lossless\r\nWriting library                          : Lavc57.48.101 ssa\r\nLanguage                                 : English\r\nDefault                                  : No\r\nForced                                   : No\r\nDURATION                                 : 00:28:04.334000000\r\n\r\n__--__--__--__--__--__--__--__--__--__--__--__--__--\r\n\r\n\r\nIMDb: http://www.imdb.com/title/tt5540054\r\n\r\nAfter adding torrent with magnet link,\r\n\r\nplease add this  following trackers list to the torrent for better seeds.\r\n\r\n\r\nudp://tracker.coppersurfer.tk:6969/announce\r\n\r\nudp://tracker.opentrackr.org:1337/announce\r\n \nhttp://tracker.baravik.org:6970/announce\r\n \nhttp://tracker2.wasabii.com.tw:6969/announce\r\n\r\nudp://9.rarbg.me:2710/announce\r\n\r\n__--__--__--__--__--__--__--__--__--__--__--__--__--\r\n\r\n\r\n\r\nEnjoy!",
  "parsed": {
    "xt": "urn:btih:2959648e33855611681ebb18a00591f7ed125f31",
    "dn": "The Tick 2016 S01E00 Pilot 1080p AMZN WEBRip HEVC DD5.1 x265",
    "tr": [
      "udp://exodus.desync.com:6969",
      "udp://open.demonii.com:1337",
      "udp://tracker.coppersurfer.tk:6969",
      "udp://tracker.leechers-paradise.org:6969",
      "udp://zer0day.ch:1337"
    ],
    "infoHash": "2959648e33855611681ebb18a00591f7ed125f31",
    "infoHashBuffer": {
      "type": "Buffer",
      "data": [
        41,
        89,
        100,
        142,
        51,
        133,
        86,
        17,
        104,
        30,
        187,
        24,
        160,
        5,
        145,
        247,
        237,
        18,
        95,
        49
      ]
    },
    "name": "The Tick 2016 S01E00 Pilot 1080p AMZN WEBRip HEVC DD5.1 x265",
    "announce": [
      "udp://exodus.desync.com:6969",
      "udp://open.demonii.com:1337",
      "udp://tracker.coppersurfer.tk:6969",
      "udp://tracker.leechers-paradise.org:6969",
      "udp://zer0day.ch:1337"
    ],
    "urlList": []
  },
  "previous": 71,
  "peers": 61,
  "last_updated": "2016-12-26T19:42:26.073Z"
}